# xmcd CD database file generated by Grip 3.2.0
# 
# Track frame offsets:
#       150
#       12396
#       24747
#       39620
#       48562
#       59232
#       66105
#       76984
#       90800
#       105487
#       115949
#       128434
#       140364
#       148394
#       162398
#       178358
#       191281
#       202022
#       226760
# 
# Disc length: 3167 seconds
# 
# Revision: 1
# Processed by: cddbd v1.5.1PL2 Copyright (c) Steve Scherf et al.
# Submitted via: Grip 3.2.0
# 
DISCID=0c0c5d13
DTITLE=Various Artist - 1. velký trampský zpěvník  Širý - Tr
DYEAR=2005
DGENRE=Country
TTITLE0=Širý proud
TTITLE1=Štěchovický valčík
TTITLE2=Štíhlý škuner
TTITLE3=Táboráku plápolej
TTITLE4=Táhlo už k večeru (Hej šup námořníci)
TTITLE5=Tajá
TTITLE6=Tak já jdu dál
TTITLE7=Tak už mi má holka mává
TTITLE8=Tam na kopečku
TTITLE9=Tam, kde mech voní
TTITLE10=Teď už přijela tou dlouhou cestou k nám
TTITLE11=Texaská hymna
TTITLE12=Tipperary
TTITLE13=Toulavej
TTITLE14=Trajda (Lodníkův lament)
TTITLE15=Trampe, kamaráde
TTITLE16=Trampové piráti
TTITLE17=Trampská mše
TTITLE18=Trápení
EXTD=Vložila Agina
EXTT0=
EXTT1=
EXTT2=
EXTT3=
EXTT4=
EXTT5=
EXTT6=
EXTT7=
EXTT8=
EXTT9=
EXTT10=
EXTT11=
EXTT12=
EXTT13=
EXTT14=
EXTT15=
EXTT16=
EXTT17=
EXTT18=
PLAYORDER=
